<svg width="424" height="175" viewBox="0 0 424 175" fill="none" xmlns="http://www.w3.org/2000/svg">
<path d="M14.13 7.04004L1.13 20.05L13.55 32.47" stroke="#2793AD" stroke-miterlimit="10"/>
<path d="M423.29 39.3899L384.92 58.6999L356.08 29.8599L317.23 49.0199" stroke="#2793AD" stroke-miterlimit="10"/>
<path d="M320.07 51.7801L355.43 34.3501L384.92 63.8401L423.29 44.5201" stroke="#2793AD" stroke-miterlimit="10"/>
<path d="M322.87 54.5601L354.77 38.8301L384.92 68.9701L423.29 49.6501" stroke="#2793AD" stroke-miterlimit="10"/>
<path d="M325.67 57.3301L354.12 43.3101L384.92 74.1001L423.29 54.7901" stroke="#2793AD" stroke-miterlimit="10"/>
<path d="M328.47 60.11L353.47 47.8L384.92 79.23L423.29 59.92" stroke="#2793AD" stroke-miterlimit="10"/>
<path d="M331.27 62.89L352.81 52.28L384.92 84.37L423.29 65.05" stroke="#2793AD" stroke-miterlimit="10"/>
<path d="M334.07 65.67L352.16 56.77L384.92 89.5L423.29 70.19" stroke="#2793AD" stroke-miterlimit="10"/>
<path d="M336.88 68.44L351.51 61.25L384.92 94.63L423.29 75.32" stroke="#2793AD" stroke-miterlimit="10"/>
<path d="M339.68 71.22L350.86 65.73L384.92 99.77L423.29 80.45" stroke="#2793AD" stroke-miterlimit="10"/>
<path d="M346.29 84.6199L348.25 83.6699L384.92 120.3L423.29 100.99" stroke="#2793AD" stroke-miterlimit="10"/>
<path d="M346.29 88.7899L347.59 88.1499L384.92 125.43L423.29 106.12" stroke="#2793AD" stroke-miterlimit="10"/>
<path d="M346.29 92.9499L346.94 92.6399L384.92 130.57L423.29 111.25" stroke="#2793AD" stroke-miterlimit="10"/>
<path d="M346.29 97.1199L384.92 135.7L423.29 116.39" stroke="#2793AD" stroke-miterlimit="10"/>
<path d="M346.29 154.75L307.92 174.07L230.93 97.0701" stroke="#2793AD" stroke-miterlimit="10"/>
<path d="M230.93 91.5701L307.92 168.56L346.29 149.26" stroke="#2793AD" stroke-miterlimit="10"/>
<path d="M230.93 86.0701L307.91 163.06L346.29 143.76" stroke="#2793AD" stroke-miterlimit="10"/>
<path d="M230.93 80.5701L307.91 157.56L346.29 138.26" stroke="#2793AD" stroke-miterlimit="10"/>
<path d="M342.49 74L350.2 70.22L384.92 104.9L423.29 85.59" stroke="#2793AD" stroke-miterlimit="10"/>
<path d="M345.29 76.79L349.55 74.7L384.92 110.03L423.29 90.72" stroke="#2793AD" stroke-miterlimit="10"/>
<path d="M346.29 80.4599L348.9 79.1799L384.92 115.17L423.29 95.8499" stroke="#2793AD" stroke-miterlimit="10"/>
<path d="M230.93 75.0701L307.9 152.05L346.29 132.76" stroke="#2793AD" stroke-miterlimit="10"/>
<path d="M230.93 69.5701L307.9 146.55L346.29 127.26" stroke="#2793AD" stroke-miterlimit="10"/>
<path d="M230.93 64.0701L307.9 141.04L346.29 121.76" stroke="#2793AD" stroke-miterlimit="10"/>
<path d="M230.93 58.5701L307.89 135.54L346.29 116.26" stroke="#2793AD" stroke-miterlimit="10"/>
<path d="M230.93 53.0701L307.89 130.03L346.29 110.76" stroke="#2793AD" stroke-miterlimit="10"/>
<path d="M230.93 47.5701L307.88 124.53L346.29 105.26" stroke="#2793AD" stroke-miterlimit="10"/>
<path d="M230.93 42.0701L307.88 119.03L346.29 99.7601" stroke="#2793AD" stroke-miterlimit="10"/>
<path d="M230.93 36.5701L307.88 113.52L346.29 94.2601" stroke="#2793AD" stroke-miterlimit="10"/>
<path d="M230.93 31.0701L307.87 108.02L346.29 88.7601" stroke="#2793AD" stroke-miterlimit="10"/>
<path d="M230.93 25.5701L307.87 102.51L346.29 83.2701" stroke="#2793AD" stroke-miterlimit="10"/>
<path d="M230.93 20.0701L307.87 97.0101L346.29 77.7701" stroke="#2793AD" stroke-miterlimit="10"/>
<path d="M288.69 19.88L327.24 0.609985L341.65 15.29L303.11 34.56L288.69 19.88Z" stroke="#2793AD" stroke-miterlimit="10"/>
<path d="M292.3 23.5501L327.27 6.07007L338.08 17.0801" stroke="#2793AD" stroke-miterlimit="10"/>
<path d="M295.9 27.22L327.29 11.53L334.5 18.87" stroke="#2793AD" stroke-miterlimit="10"/>
<path d="M299.42 30.8L327.32 16.99L330.92 20.66" stroke="#2793AD" stroke-miterlimit="10"/>
<path d="M220.99 39.3901L105.63 97.0701L28.63 20.0701H1.13" stroke="#2793AD" stroke-miterlimit="10"/>
<path d="M28.63 25.5701L105.63 102.57L220.99 44.8901" stroke="#2793AD" stroke-miterlimit="10"/>
<path d="M28.63 31.0701L105.63 108.07L220.99 50.3901" stroke="#2793AD" stroke-miterlimit="10"/>
<path d="M28.63 36.5701L105.63 113.57L220.99 55.8901" stroke="#2793AD" stroke-miterlimit="10"/>
<path d="M28.63 42.0701L105.63 119.07L220.99 61.3901" stroke="#2793AD" stroke-miterlimit="10"/>
<path d="M28.63 47.5701L105.63 124.57L220.99 66.8901" stroke="#2793AD" stroke-miterlimit="10"/>
<path d="M28.63 53.0701L105.63 130.07L220.99 72.3901" stroke="#2793AD" stroke-miterlimit="10"/>
<path d="M28.63 75.0701L105.63 152.07L220.99 94.3901" stroke="#2793AD" stroke-miterlimit="10"/>
<path d="M28.63 80.5701L105.63 157.57L220.99 99.8901" stroke="#2793AD" stroke-miterlimit="10"/>
<path d="M28.63 86.0701L105.63 163.07L220.99 105.39" stroke="#2793AD" stroke-miterlimit="10"/>
<path d="M28.63 91.5701L105.63 168.57L220.99 110.89" stroke="#2793AD" stroke-miterlimit="10"/>
<path d="M28.63 97.0701L105.63 174.07L220.99 116.39" stroke="#2793AD" stroke-miterlimit="10"/>
<path d="M28.63 58.5701L105.63 135.57L220.99 77.8901" stroke="#2793AD" stroke-miterlimit="10"/>
<path d="M28.63 64.0701L105.63 141.07L220.99 83.3901" stroke="#2793AD" stroke-miterlimit="10"/>
<path d="M28.63 69.5701L105.63 146.57L220.99 88.8901" stroke="#2793AD" stroke-miterlimit="10"/>
<path d="M110.46 44.1001L149.01 24.8301L163.42 39.5101L124.88 58.7801L110.46 44.1001Z" stroke="#2793AD" stroke-miterlimit="10"/>
<path d="M114.07 47.77L149.04 30.29L159.84 41.3" stroke="#2793AD" stroke-miterlimit="10"/>
<path d="M117.67 51.44L149.06 35.75L156.27 43.09" stroke="#2793AD" stroke-miterlimit="10"/>
<path d="M121.18 55.02L149.09 41.2L152.69 44.88" stroke="#2793AD" stroke-miterlimit="10"/>
<path d="M86.32 20.03L124.87 0.76001L139.28 15.44L100.74 34.71L86.32 20.03Z" stroke="#2793AD" stroke-miterlimit="10"/>
<path d="M89.92 23.7L124.89 6.21997L135.7 17.23" stroke="#2793AD" stroke-miterlimit="10"/>
<path d="M93.53 27.3699L124.92 11.6699L132.12 19.0199" stroke="#2793AD" stroke-miterlimit="10"/>
<path d="M97.04 30.9499L124.94 17.1299L128.55 20.8099" stroke="#2793AD" stroke-miterlimit="10"/>
</svg>
