<svg xmlns="http://www.w3.org/2000/svg" viewBox="0 0 128.96 92.48"><defs><style>.cls-1{fill:none;stroke:#c67514;stroke-linejoin:round;}</style></defs><title>behance</title><g id="Layer_2" data-name="Layer 2"><g id="Layer_1-2" data-name="Layer 1"><path class="cls-1" d="M.5,90.11V.65A5.85,5.85,0,0,1,1.39.51C14.77.54,28.16.39,41.53.68,48.64.84,55,3.4,59.51,9.27c8.56,11.09,4.1,28-8.78,33.46-.4.17-.78.37-1.5.7,1.12.3,1.9.49,2.68.72,9.23,2.75,14.86,10,15.27,19.62a28.47,28.47,0,0,1-1.33,10.62C63,82.62,56.81,87,48.69,88.91a46.37,46.37,0,0,1-9.88,1.22c-12.34.14-24.68.06-37,.06C1.39,90.19,1,90.14.5,90.11Zm7.41-6.82a2.69,2.69,0,0,0,.51.14c10.78,0,21.56.09,32.33-.1a21.47,21.47,0,0,0,12.32-3.9c5.23-3.74,7-9.08,6.71-15.28-.28-6.73-3.31-11.68-9.44-14.61A26.21,26.21,0,0,0,39,47.13c-9.94-.06-19.89,0-29.83,0-.4,0-.8,0-1.25.09ZM8,7.13V40.52c.45,0,.76,0,1.07,0,9.26,0,18.53,0,27.8,0a31.5,31.5,0,0,0,6-.62c5.7-1.18,10.42-3.91,12.34-9.74a23.74,23.74,0,0,0,1-8c-.17-7-4-11.94-10.72-13.82a35.92,35.92,0,0,0-8.76-1.2c-8-.16-16-.06-24-.06Z"/><path class="cls-1" d="M128.46,59.91H78c0,10.25,4.45,21.67,14.93,24.52,7,1.9,13.76,1.27,19.69-3.34,3.4-2.64,5.27-6.38,6.61-10.38a1.69,1.69,0,0,1,2-1.41c1.91.1,3.83,0,5.91,0-1.69,7-4.81,12.91-10.47,17.25-9.78,7.52-25.77,7.16-35.13-.85A30.76,30.76,0,0,1,71.23,67.27c-1.59-8.65-1.46-17.24,2-25.45S82.15,27,91.15,24.6c9.34-2.47,18.29-1.48,26.1,4.82a20.59,20.59,0,0,1,3.41,3.63C126.57,41,127.92,50.2,128.46,59.91Zm-7.62-6.28c-.27-1.9-.48-3.69-.79-5.47-2-11.19-8.11-17.08-19-18.07-5.08-.46-9.9.54-13.89,3.9-6,5.09-8.5,11.92-9.19,19.64Z"/><path class="cls-1" d="M114.07,12.85v5H84.16v-5Z"/></g></g></svg>