<svg xmlns="http://www.w3.org/2000/svg" viewBox="0 0 581.09 366.1"><defs><style>.cls-1{fill:#fff;}</style></defs><title>bejo</title><g id="Layer_2" data-name="Layer 2"><g id="Layer_1-2" data-name="Layer 1"><path class="cls-1" d="M191.09,366.1H.09Q.09,185.35,0,4.6C0,.85.84,0,4.59,0q92.76.21,185.5.1a22.7,22.7,0,0,0,3.4.67,144.45,144.45,0,0,1,44.76,9c14.94,5.69,27.86,14.36,36.81,27.83C289.6,59.46,291.68,83.86,287.82,109S269,151.61,247.25,163.86c-1.42.8-3,1.37-3.69,3.1.2.28.33.67.57.77,1.69.7,3.4,1.33,5.1,2,27.51,10.52,45.35,29.77,53.38,58.24,3.58,12.69,4,25.55,3.77,38.55a91.43,91.43,0,0,1-8.76,38.07c-15.44,32.48-43.35,48.23-76.59,56.74C211.2,363.83,201.12,364.77,191.09,366.1ZM81.36,253.1c0,14.49.16,29-.08,43.47-.08,4.8,1.56,6.38,6.35,6.34q33.48-.29,67,0a195.08,195.08,0,0,0,29.79-2.09c17.68-2.62,31.88-10.72,37.84-28.3,5.34-15.72,3.47-31.57-4.1-46.45a29.06,29.06,0,0,0-8.29-9.82c-12.65-9.73-27.52-12.42-42.75-12.7-26.64-.5-53.29-.08-79.94-.21-4.33,0-5.88,1.49-5.83,5.83C81.48,223.78,81.37,238.44,81.36,253.1ZM128,147.82c12.34-.62,27.85,1.17,43.25-1,12.86-1.83,24.77-5.91,32.34-17.3,7.12-10.73,7.45-22.85,5.27-35.09s-9.48-20.08-20.5-25.13c-9.78-4.48-20.28-5.49-30.65-5.73-23.63-.55-47.28-.11-70.92-.24-4.18,0-5.5,1.63-5.49,5.65q.16,36.71,0,73.42c0,4.16,1.6,5.55,5.63,5.5C99.59,147.73,112.25,147.82,128,147.82Z"/><path class="cls-1" d="M465.09,366.1h-27c-8.18-1.29-16.47-1.79-24.57-3.79-25.37-6.27-47.6-18.05-64.82-38-20.8-24.06-30.64-52.74-32.69-84-2-29.87,2.37-58.73,16.87-85.51,15.5-28.63,38.84-48.19,69-59.74,21.74-8.33,44.3-9.59,67.3-7.33C494,90.17,515.91,99.4,534.52,115.8c25.18,22.18,38.27,50.94,43.94,83.56,1.48,8.55,1.4,17.2,2.63,25.74v12c-1.92,8.26-1.92,8.26-10.85,8.26H452.76c-18.83,0-37.66.12-56.48-.07-4.68,0-6.52,1.71-5.89,6.18s1.1,9.25,2.1,13.78c5.05,22.84,18.12,38.2,41.58,43.27,10.42,2.25,21,3.29,31.67,1.22,18.7-3.64,33.92-12.51,43.34-29.6,1.66-3,3.74-3.31,6.47-3.31H565c11.15,0,11.25,0,7.36,10.62-14.35,39-40.81,64.75-81.77,74.61C482.22,364.08,473.63,364.89,465.09,366.1ZM448,197.82c17.48,0,35-.07,52.45.05,4.3,0,5.71-1.26,4.46-5.63-1.56-5.44-3-10.88-5.12-16.14-4-10.07-9.37-19.38-18.9-25-18.55-11-38.35-10.8-57.6-3-18.19,7.39-28.71,22-32.06,41.49-1.37,7.95-1.25,8.21,6.81,8.22Q423,197.85,448,197.82Z"/><path class="cls-1" d="M451.1,17.83q33.73,0,67.49,0c6.53,0,6.74.23,6.76,6.76,0,10.17-.1,20.33,0,30.5.05,3.86-1.47,5.29-5.31,5.29q-69.5-.11-139,0c-3.85,0-5.35-1.44-5.3-5.3.14-10.33.22-20.67-.05-31-.12-4.79,1.6-6.38,6.36-6.34C405.1,17.93,428.1,17.84,451.1,17.83Z"/></g></g></svg>