<svg width="712" height="266" viewBox="0 0 712 266" fill="none" xmlns="http://www.w3.org/2000/svg">
<path d="M0.799988 30.72L118.11 148.03L264.84 74.66" stroke="#515151" stroke-miterlimit="10"/>
<path d="M0.799988 39.1L118.11 156.4L264.84 83.04" stroke="#515151" stroke-miterlimit="10"/>
<path d="M0.799988 47.48L118.11 164.78L264.84 91.42" stroke="#515151" stroke-miterlimit="10"/>
<path d="M0.799988 55.86L118.11 173.16L264.84 99.8" stroke="#515151" stroke-miterlimit="10"/>
<path d="M0.799988 64.23L118.11 181.54L264.84 108.18" stroke="#515151" stroke-miterlimit="10"/>
<path d="M0.799988 72.61L118.11 189.92L264.84 116.55" stroke="#515151" stroke-miterlimit="10"/>
<path d="M0.799988 80.99L118.11 198.3L264.84 124.93" stroke="#515151" stroke-miterlimit="10"/>
<path d="M0.799988 89.37L118.11 206.68L264.84 133.31" stroke="#515151" stroke-miterlimit="10"/>
<path d="M277.74 30.57L395.04 147.87L453.49 118.44" stroke="#515151" stroke-miterlimit="10"/>
<path d="M277.74 38.95L395.04 156.25L453.49 126.82" stroke="#515151" stroke-miterlimit="10"/>
<path d="M277.74 47.33L395.04 164.63L453.49 135.2" stroke="#515151" stroke-miterlimit="10"/>
<path d="M277.74 55.7L395.04 173.01L453.49 143.58" stroke="#515151" stroke-miterlimit="10"/>
<path d="M277.74 64.08L395.04 181.39L453.49 151.96" stroke="#515151" stroke-miterlimit="10"/>
<path d="M277.74 72.46L395.04 189.77L453.49 160.34" stroke="#515151" stroke-miterlimit="10"/>
<path d="M277.74 80.84L395.04 198.15L453.49 168.72" stroke="#515151" stroke-miterlimit="10"/>
<path d="M277.74 89.22L395.04 206.52L453.49 177.1" stroke="#515151" stroke-miterlimit="10"/>
<path d="M638.43 119.55L711.48 83.09" stroke="#515151" stroke-miterlimit="10"/>
<path d="M633.57 113.58L711.48 74.71" stroke="#515151" stroke-miterlimit="10"/>
<path d="M627.99 107.98L711.48 66.33" stroke="#515151" stroke-miterlimit="10"/>
<path d="M622.41 102.37L711.48 57.95" stroke="#515151" stroke-miterlimit="10"/>
<path d="M616.84 96.77L711.48 49.57" stroke="#515151" stroke-miterlimit="10"/>
<path d="M611.26 91.16L711.48 41.19" stroke="#515151" stroke-miterlimit="10"/>
<path d="M605.68 85.55L711.48 32.81" stroke="#515151" stroke-miterlimit="10"/>
<path d="M600.1 79.94L711.48 24.43" stroke="#515151" stroke-miterlimit="10"/>
<path d="M0.799988 131.27L118.11 248.57L264.84 175.21" stroke="#515151" stroke-miterlimit="10"/>
<path d="M0.799988 139.65L118.11 256.95L264.84 183.59" stroke="#515151" stroke-miterlimit="10"/>
<path d="M0.799988 148.03L118.11 265.33L264.84 191.97" stroke="#515151" stroke-miterlimit="10"/>
<path d="M277.74 122.74L395.04 240.04L453.49 210.61" stroke="#515151" stroke-miterlimit="10"/>
<path d="M277.74 131.11L395.04 248.42L453.49 218.99" stroke="#515151" stroke-miterlimit="10"/>
<path d="M277.74 139.49L395.04 256.8L453.49 227.37" stroke="#515151" stroke-miterlimit="10"/>
<path d="M277.74 147.87L395.04 265.18L453.49 235.75" stroke="#515151" stroke-miterlimit="10"/>
<path d="M711.48 133.36L638.12 170.04" stroke="#515151" stroke-miterlimit="10"/>
<path d="M638.28 161.57L711.48 124.98" stroke="#515151" stroke-miterlimit="10"/>
<path d="M462.36 139.49L579.66 256.8L638.14 227.38" stroke="#515151" stroke-miterlimit="10"/>
<path d="M638.31 153.16L711.48 116.6" stroke="#515151" stroke-miterlimit="10"/>
<path d="M462.36 131.11L579.67 248.42L638.16 219" stroke="#515151" stroke-miterlimit="10"/>
<path d="M638.12 235.75L579.66 265.18L462.36 147.87" stroke="#515151" stroke-miterlimit="10"/>
<path d="M0.799988 97.75L118.11 215.06L264.84 141.69" stroke="#515151" stroke-miterlimit="10"/>
<path d="M0.799988 106.13L118.11 223.44L264.84 150.07" stroke="#515151" stroke-miterlimit="10"/>
<path d="M0.799988 114.51L118.11 231.81L264.84 158.45" stroke="#515151" stroke-miterlimit="10"/>
<path d="M0.799988 122.89L118.11 240.19L264.84 166.83" stroke="#515151" stroke-miterlimit="10"/>
<path d="M277.74 97.6L395.04 214.9L453.49 185.48" stroke="#515151" stroke-miterlimit="10"/>
<path d="M277.74 105.98L395.04 223.28L453.49 193.85" stroke="#515151" stroke-miterlimit="10"/>
<path d="M277.74 114.36L395.04 231.66L453.49 202.23" stroke="#515151" stroke-miterlimit="10"/>
<path d="M638.19 144.83L711.48 108.22" stroke="#515151" stroke-miterlimit="10"/>
<path d="M462.36 122.74L579.67 240.04L638.19 210.62" stroke="#515151" stroke-miterlimit="10"/>
<path d="M638.43 136.32L711.48 99.84" stroke="#515151" stroke-miterlimit="10"/>
<path d="M462.36 114.36L579.67 231.66L638.21 202.25" stroke="#515151" stroke-miterlimit="10"/>
<path d="M638.24 128.03L711.48 91.47" stroke="#515151" stroke-miterlimit="10"/>
<path d="M462.36 105.98L579.67 223.29L638.24 193.87" stroke="#515151" stroke-miterlimit="10"/>
<path d="M462.36 97.6L579.67 214.91L638.26 185.5" stroke="#515151" stroke-miterlimit="10"/>
<path d="M462.36 89.22L579.67 206.53L638.28 177.12" stroke="#515151" stroke-miterlimit="10"/>
<path d="M462.36 80.84L579.67 198.15L638.31 168.75L638.45 118.5" stroke="#515151" stroke-miterlimit="10"/>
<path d="M462.36 72.46L579.67 189.77L638.33 160.37" stroke="#515151" stroke-miterlimit="10"/>
<path d="M462.36 64.08L579.67 181.39L638.36 152" stroke="#515151" stroke-miterlimit="10"/>
<path d="M462.36 55.7L579.67 173.01L638.38 143.62" stroke="#515151" stroke-miterlimit="10"/>
<path d="M462.36 47.33L579.67 164.64L638.4 135.25" stroke="#515151" stroke-miterlimit="10"/>
<path d="M462.36 38.95L579.67 156.26L638.43 126.87" stroke="#515151" stroke-miterlimit="10"/>
<path d="M462.36 30.57L579.67 147.88L638.45 118.5L594.52 74.34L711.48 16.06" stroke="#515151" stroke-miterlimit="10"/>
<path d="M550.37 30.5L609.09 1.14001L631.05 23.5L572.33 52.87L550.37 30.5Z" stroke="#515151" stroke-miterlimit="10"/>
<path d="M555.86 36.1L609.13 9.45001L625.6 26.23" stroke="#515151" stroke-miterlimit="10"/>
<path d="M561.35 41.69L609.17 17.77L620.15 28.96" stroke="#515151" stroke-miterlimit="10"/>
<path d="M566.7 47.14L609.21 26.09L614.7 31.68" stroke="#515151" stroke-miterlimit="10"/>
<path d="M191.47 38.62L169.3 16.86H132.62L94.07 35.95" stroke="#515151" stroke-miterlimit="10"/>
<path d="M191.47 46.68L169.3 24.91H132.62L99.45 41.34" stroke="#515151" stroke-miterlimit="10"/>
<path d="M191.47 54.74L169.3 32.97H132.62L104.84 46.73" stroke="#515151" stroke-miterlimit="10"/>
<path d="M191.47 62.8L169.3 41.03H132.62L110.23 52.12" stroke="#515151" stroke-miterlimit="10"/>
<path d="M189.05 68.47L169.3 49.09H132.62L115.62 57.51" stroke="#515151" stroke-miterlimit="10"/>
<path d="M183.63 71.21L169.3 57.14H132.62L121.01 62.89" stroke="#515151" stroke-miterlimit="10"/>
<path d="M178.21 73.94L169.3 65.2H132.62L126.4 68.28" stroke="#515151" stroke-miterlimit="10"/>
<path d="M172.79 76.68L169.3 73.26H132.62L131.78 73.67" stroke="#515151" stroke-miterlimit="10"/>
<path d="M163.6 81.31H139.43" stroke="#515151" stroke-miterlimit="10"/>
<path d="M88.68 30.57L147.53 89.42L191.47 67.25V30.57L169.3 8.79999H132.62L88.68 30.57Z" stroke="#515151" stroke-miterlimit="10"/>
</svg>
