<svg xmlns="http://www.w3.org/2000/svg" viewBox="0 0 956.09 954.94"><defs><style>.cls-1{fill:none;stroke:#fff;stroke-miterlimit:10;}</style></defs><title>diploma</title><g id="Layer_2" data-name="Layer 2"><g id="Layer_3" data-name="Layer 3"><polyline class="cls-1" points="601.39 749.15 542.94 778.58 499 734.64 439.82 763.82"/><polyline class="cls-1" points="444.14 768.03 498.01 741.47 542.94 786.39 601.39 756.97"/><polyline class="cls-1" points="448.4 772.26 497.01 748.3 542.94 794.22 601.39 764.79"/><polyline class="cls-1" points="452.67 776.49 496.02 755.13 542.94 802.04 601.39 772.61"/><polyline class="cls-1" points="456.94 780.72 495.02 761.96 542.94 809.86 601.39 780.43"/><polyline class="cls-1" points="461.21 784.95 494.03 768.79 542.94 817.68 601.39 788.25"/><polyline class="cls-1" points="465.48 789.18 493.04 775.62 542.94 825.5 601.39 796.07"/><polyline class="cls-1" points="469.75 793.42 492.04 782.46 542.94 833.32 601.39 803.89"/><polyline class="cls-1" points="474.02 797.65 491.05 789.29 542.94 841.14 601.39 811.71"/><polyline class="cls-1" points="0.35 719.72 117.44 837.03 175.78 807.76 124.43 756.4 176.11 756.4 176.11 719.72 234.97 778.58 293.42 749.15"/><polyline class="cls-1" points="132.81 764.78 176.11 764.78 176.11 728.1 234.97 786.95 293.42 757.53"/><polyline class="cls-1" points="0.35 728.1 117.44 845.41 175.78 816.14"/><polyline class="cls-1" points="141.18 773.16 176.11 773.16 176.11 736.48 234.97 795.33 293.42 765.91"/><polyline class="cls-1" points="0.35 736.48 117.44 853.78 175.78 824.52"/><polyline class="cls-1" points="149.56 781.54 176.11 781.54 176.11 744.86 234.97 803.71 293.42 774.29"/><polyline class="cls-1" points="0.35 744.86 117.44 862.16 175.78 832.9"/><polyline class="cls-1" points="157.94 789.92 176.11 789.92 176.11 753.24 234.97 812.09 293.42 782.66"/><polyline class="cls-1" points="0.35 753.24 117.44 870.54 175.78 841.28"/><polyline class="cls-1" points="165.83 798.3 176.11 798.3 176.11 761.62 234.97 820.47 293.42 791.04"/><polyline class="cls-1" points="0.35 761.62 117.44 878.92 175.78 849.66"/><polyline class="cls-1" points="176.11 837.23 176.11 770 234.97 828.85 293.42 799.42"/><polyline class="cls-1" points="0.35 770 117.44 887.3 175.78 858.04"/><polyline class="cls-1" points="0.35 778.37 117.44 895.68 175.78 866.42"/><polyline class="cls-1" points="484.09 818.07 487.07 816.61 542.94 872.42 601.39 842.99"/><polyline class="cls-1" points="484.09 824.41 486.07 823.44 542.94 880.24 601.39 850.81"/><polyline class="cls-1" points="484.09 830.75 485.08 830.27 542.94 888.06 601.39 858.63"/><polyline class="cls-1" points="484.09 837.1 542.94 895.88 601.39 866.46"/><polyline class="cls-1" points="176.11 811.89 234.97 870.74 293.42 841.32"/><polyline class="cls-1" points="176.11 820.27 234.97 879.12 293.42 849.7"/><polyline class="cls-1" points="0.35 820.27 117.44 937.58 175.78 908.31"/><polyline class="cls-1" points="176.11 828.65 234.97 887.5 293.42 858.08"/><polyline class="cls-1" points="0.35 828.65 117.44 945.95 175.78 916.69"/><polyline class="cls-1" points="176.11 837.03 234.97 895.88 293.42 866.46"/><polyline class="cls-1" points="0.35 837.03 117.44 954.33 175.78 925.07 175.78 807.76"/><polyline class="cls-1" points="484.09 924.91 425.63 954.33 308.33 837.03"/><polyline class="cls-1" points="308.33 828.65 425.63 945.95 484.09 916.53"/><polyline class="cls-1" points="308.33 820.27 425.62 937.56 484.09 908.15"/><polyline class="cls-1" points="308.33 811.89 425.62 929.18 484.09 899.78"/><polyline class="cls-1" points="478.29 801.89 490.05 796.12 542.94 848.96 601.39 819.53"/><polyline class="cls-1" points="482.57 806.13 489.06 802.95 542.94 856.78 601.39 827.35"/><polyline class="cls-1" points="484.09 811.72 488.06 809.78 542.94 864.6 601.39 835.17"/><polyline class="cls-1" points="176.11 778.37 234.97 837.23 293.42 807.8"/><polyline class="cls-1" points="176.11 786.75 234.97 845.61 293.42 816.18"/><polyline class="cls-1" points="0.35 786.75 117.44 904.06 175.78 874.8"/><polyline class="cls-1" points="176.11 795.13 234.97 853.99 293.42 824.56"/><polyline class="cls-1" points="0.35 795.13 117.44 912.44 175.78 883.17"/><polyline class="cls-1" points="176.11 803.51 234.97 862.37 293.42 832.94"/><polyline class="cls-1" points="0.35 803.51 117.44 920.82 175.78 891.55"/><polyline class="cls-1" points="0.35 811.89 117.44 929.2 175.78 899.93"/><polyline class="cls-1" points="308.33 803.51 425.61 920.79 484.09 891.4"/><polyline class="cls-1" points="308.33 795.13 425.6 912.41 484.09 883.02"/><polyline class="cls-1" points="308.33 786.75 425.6 904.02 484.09 874.64"/><polyline class="cls-1" points="308.33 778.37 425.59 895.63 484.09 866.26"/><polyline class="cls-1" points="308.33 770 425.58 887.25 484.09 857.89"/><polyline class="cls-1" points="308.33 761.62 425.58 878.87 484.09 849.51"/><polyline class="cls-1" points="308.33 753.24 425.57 870.48 484.09 841.13"/><polyline class="cls-1" points="308.33 744.86 425.57 862.09 484.09 832.75"/><polyline class="cls-1" points="308.33 736.48 425.56 853.71 484.09 824.38"/><polyline class="cls-1" points="308.33 728.1 425.55 845.32 484.09 816"/><polyline class="cls-1" points="308.33 719.72 425.55 836.94 484.09 807.62"/><polygon class="cls-1" points="396.34 719.44 455.07 690.07 477.02 712.44 418.31 741.8 396.34 719.44"/><polyline class="cls-1" points="401.83 725.03 455.11 698.39 471.58 715.16"/><polyline class="cls-1" points="407.32 730.62 455.15 706.7 466.13 717.89"/><polyline class="cls-1" points="412.68 736.07 455.19 715.02 460.68 720.61"/><polyline class="cls-1" points="662.8 374.9 780.11 492.2 955.86 404.33"/><polyline class="cls-1" points="662.8 383.28 780.11 500.58 955.86 412.71"/><polyline class="cls-1" points="662.8 391.66 780.11 508.96 955.86 421.08"/><polyline class="cls-1" points="662.8 400.04 780.11 517.34 955.86 429.46"/><polyline class="cls-1" points="662.8 408.42 780.11 525.72 955.86 437.84"/><polyline class="cls-1" points="662.8 416.79 780.11 534.1 955.86 446.22"/><polyline class="cls-1" points="662.8 425.17 780.11 542.48 955.86 454.6"/><polyline class="cls-1" points="354.83 374.9 472.13 492.2 647.89 404.33"/><polyline class="cls-1" points="354.83 383.28 472.13 500.58 647.89 412.71"/><polyline class="cls-1" points="354.83 391.66 472.13 508.96 647.89 421.08"/><polyline class="cls-1" points="354.83 400.04 472.13 517.34 647.89 429.46"/><polyline class="cls-1" points="354.83 408.42 472.13 525.72 647.89 437.84"/><polyline class="cls-1" points="354.83 416.79 472.13 534.1 647.89 446.22"/><polyline class="cls-1" points="354.83 425.17 472.13 542.48 647.89 454.6"/><polyline class="cls-1" points="354.83 433.55 472.13 550.86 647.89 462.98"/><polyline class="cls-1" points="662.8 458.69 780.11 575.99 955.86 488.12"/><polyline class="cls-1" points="662.8 467.07 780.11 584.37 955.86 496.5"/><polyline class="cls-1" points="662.8 475.45 780.11 592.75 955.86 504.87"/><polyline class="cls-1" points="662.8 483.82 780.11 601.13 955.86 513.25"/><polyline class="cls-1" points="662.8 492.2 780.11 609.51 955.86 521.63"/><polyline class="cls-1" points="354.83 467.07 472.13 584.37 647.89 496.5"/><polyline class="cls-1" points="354.83 475.45 472.13 592.75 647.89 504.87"/><polyline class="cls-1" points="354.83 483.82 472.13 601.13 647.89 513.25"/><polyline class="cls-1" points="354.83 492.2 472.13 609.51 647.89 521.63"/><polyline class="cls-1" points="662.8 433.55 780.11 550.86 955.86 462.98"/><polyline class="cls-1" points="662.8 441.93 780.11 559.24 955.86 471.36"/><polyline class="cls-1" points="662.8 450.31 780.11 567.62 955.86 479.74"/><polyline class="cls-1" points="354.83 441.93 472.13 559.24 647.89 471.36"/><polyline class="cls-1" points="354.83 450.31 472.13 567.62 647.89 479.74"/><polyline class="cls-1" points="354.83 458.69 472.13 575.99 647.89 488.12"/><polyline class="cls-1" points="862.83 407.16 809.54 353.49 756.05 380.24"/><polyline class="cls-1" points="857.51 409.83 809.54 361.52 761.4 385.59"/><polyline class="cls-1" points="852.18 412.49 809.54 369.54 766.77 390.92"/><polyline class="cls-1" points="846.86 415.15 809.54 377.56 772.13 396.27"/><polyline class="cls-1" points="841.54 417.81 809.54 385.59 777.51 401.63"/><polyline class="cls-1" points="836.21 420.47 809.54 393.61 782.85 406.95"/><polyline class="cls-1" points="830.89 423.13 809.54 401.63 788.21 412.3"/><polyline class="cls-1" points="825.56 425.8 809.54 409.66 793.49 417.68"/><polyline class="cls-1" points="820.24 428.46 809.54 417.68 798.93 422.99"/><polyline class="cls-1" points="814.91 431.12 809.54 425.7 804.29 428.33"/><polygon class="cls-1" points="560.01 404.33 545.5 389.81 545.5 411.58 560.01 404.33"/><line class="cls-1" x1="554.87" y1="406.9" x2="545.5" y2="397.53"/><polygon class="cls-1" points="750.69 374.89 809.54 345.47 868.16 404.5 809.7 433.73 750.69 374.89"/><polyline class="cls-1" points="0.35 30.19 117.66 147.5 264.39 74.13"/><polyline class="cls-1" points="0.35 38.57 117.66 155.88 264.39 82.51"/><polyline class="cls-1" points="0.35 46.95 117.66 164.25 264.39 90.89"/><polyline class="cls-1" points="0.35 55.33 117.66 172.63 264.39 99.27"/><polyline class="cls-1" points="0.35 63.71 117.66 181.01 264.39 107.65"/><polyline class="cls-1" points="0.35 72.08 117.66 189.39 264.39 116.03"/><polyline class="cls-1" points="0.35 80.46 117.66 197.77 264.39 124.4"/><polyline class="cls-1" points="0.35 88.84 117.66 206.15 264.39 132.78"/><polyline class="cls-1" points="277.29 30.04 394.6 147.34 453.05 117.92"/><polyline class="cls-1" points="277.29 38.42 394.6 155.72 453.05 126.3"/><polyline class="cls-1" points="277.29 46.8 394.6 164.1 453.05 134.67"/><polyline class="cls-1" points="277.29 55.17 394.6 172.48 453.05 143.05"/><polyline class="cls-1" points="277.29 63.55 394.6 180.86 453.05 151.43"/><polyline class="cls-1" points="277.29 71.93 394.6 189.24 453.05 159.81"/><polyline class="cls-1" points="277.29 80.31 394.6 197.62 453.05 168.19"/><polyline class="cls-1" points="277.29 88.69 394.6 206 453.05 176.57"/><line class="cls-1" x1="637.98" y1="119.02" x2="711.04" y2="82.56"/><line class="cls-1" x1="633.12" y1="113.06" x2="711.04" y2="74.18"/><line class="cls-1" x1="627.54" y1="107.45" x2="711.04" y2="65.8"/><line class="cls-1" x1="621.97" y1="101.84" x2="711.04" y2="57.42"/><line class="cls-1" x1="616.39" y1="96.24" x2="711.04" y2="49.04"/><line class="cls-1" x1="610.81" y1="90.63" x2="711.04" y2="40.66"/><line class="cls-1" x1="605.23" y1="85.02" x2="711.04" y2="32.28"/><line class="cls-1" x1="599.66" y1="79.41" x2="711.04" y2="23.9"/><polyline class="cls-1" points="0.35 130.74 117.66 248.04 264.39 174.68"/><polyline class="cls-1" points="0.35 139.12 117.66 256.42 264.39 183.06"/><polyline class="cls-1" points="0.35 147.5 117.66 264.8 264.39 191.44"/><polyline class="cls-1" points="277.29 122.21 394.6 239.51 453.05 210.08"/><polyline class="cls-1" points="277.29 130.59 394.6 247.89 453.05 218.46"/><polyline class="cls-1" points="277.29 138.97 394.6 256.27 453.05 226.84"/><polyline class="cls-1" points="277.29 147.34 394.6 264.65 453.05 235.22"/><line class="cls-1" x1="711.04" y1="132.83" x2="637.67" y2="169.51"/><line class="cls-1" x1="637.84" y1="161.04" x2="711.04" y2="124.45"/><polyline class="cls-1" points="461.91 138.97 579.22 256.27 637.69 226.85"/><line class="cls-1" x1="637.86" y1="152.64" x2="711.04" y2="116.07"/><polyline class="cls-1" points="461.91 130.59 579.22 247.89 637.72 218.47"/><polyline class="cls-1" points="637.67 235.22 579.22 264.65 461.91 147.34"/><polyline class="cls-1" points="0.35 97.22 117.66 214.53 264.39 141.16"/><polyline class="cls-1" points="0.35 105.6 117.66 222.91 264.39 149.54"/><polyline class="cls-1" points="0.35 113.98 117.66 231.29 264.39 157.92"/><polyline class="cls-1" points="0.35 122.36 117.66 239.66 264.39 166.3"/><polyline class="cls-1" points="277.29 97.07 394.6 214.38 453.05 184.95"/><polyline class="cls-1" points="277.29 105.45 394.6 222.75 453.05 193.33"/><polyline class="cls-1" points="277.29 113.83 394.6 231.13 453.05 201.71"/><line class="cls-1" x1="637.74" y1="144.3" x2="711.04" y2="107.69"/><polyline class="cls-1" points="461.91 122.21 579.22 239.51 637.74 210.1"/><line class="cls-1" x1="637.98" y1="135.8" x2="711.04" y2="99.32"/><polyline class="cls-1" points="461.91 113.83 579.22 231.13 637.76 201.72"/><line class="cls-1" x1="637.79" y1="127.5" x2="711.04" y2="90.94"/><polyline class="cls-1" points="461.91 105.45 579.22 222.76 637.79 193.34"/><polyline class="cls-1" points="461.91 97.07 579.22 214.38 637.81 184.97"/><polyline class="cls-1" points="461.91 88.69 579.22 206 637.84 176.59"/><polyline class="cls-1" points="461.91 80.31 579.22 197.62 637.86 168.22 638 117.97"/><polyline class="cls-1" points="461.91 71.93 579.22 189.24 637.88 159.84"/><polyline class="cls-1" points="461.91 63.55 579.22 180.86 637.91 151.47"/><polyline class="cls-1" points="461.91 55.17 579.22 172.49 637.93 143.09"/><polyline class="cls-1" points="461.91 46.8 579.22 164.11 637.96 134.72"/><polyline class="cls-1" points="461.91 38.42 579.23 155.73 637.98 126.34"/><polyline class="cls-1" points="461.91 30.04 579.23 147.35 638 117.97 594.08 73.81 711.03 15.53"/><polygon class="cls-1" points="549.92 29.98 608.64 0.61 630.6 22.98 571.88 52.34 549.92 29.98"/><polyline class="cls-1" points="555.41 35.57 608.68 8.93 625.15 25.7"/><polyline class="cls-1" points="560.9 41.16 608.72 17.24 619.7 28.43"/><polyline class="cls-1" points="566.25 46.61 608.76 25.56 614.25 31.15"/><polyline class="cls-1" points="191.03 38.09 168.85 16.33 132.17 16.33 93.62 35.43"/><polyline class="cls-1" points="191.03 46.15 168.85 24.39 132.17 24.39 99.01 40.81"/><polyline class="cls-1" points="191.03 54.21 168.85 32.44 132.17 32.44 104.4 46.2"/><polyline class="cls-1" points="191.03 62.27 168.85 40.5 132.17 40.5 109.78 51.59"/><polyline class="cls-1" points="188.6 67.94 168.85 48.56 132.17 48.56 115.17 56.98"/><polyline class="cls-1" points="183.18 70.68 168.85 56.61 132.17 56.61 120.56 62.37"/><polyline class="cls-1" points="177.76 73.41 168.85 64.67 132.17 64.67 125.95 67.75"/><polyline class="cls-1" points="172.34 76.15 168.85 72.73 132.17 72.73 131.34 73.14"/><line class="cls-1" x1="163.15" y1="80.79" x2="138.98" y2="80.79"/><polygon class="cls-1" points="88.23 30.04 147.09 88.89 191.03 66.72 191.03 30.04 168.85 8.27 132.17 8.27 88.23 30.04"/></g></g></svg>