<svg xmlns="http://www.w3.org/2000/svg" viewBox="0 0 503.2 504"><defs><style>.cls-1{fill:#fff;}</style></defs><title>instajo</title><g id="Layer_2" data-name="Layer 2"><g id="Layer_1-2" data-name="Layer 1"><path class="cls-1" d="M0,164.28c.58-19.48,1.45-38.92,6.23-57.94C17,63.42,41.89,32.2,82.82,14.5,105,4.9,128.6,2.11,152.5,1.14,157.74.92,163,.39,168.2,0h166a32.23,32.23,0,0,0,4.73.8c19.47.58,38.92,1.46,57.94,6.23C439.78,17.8,471,42.69,488.71,83.62c9.59,22.19,12.37,45.78,13.36,69.68.21,5.24.75,10.47,1.13,15.7,0,55.33-.75,169.14-.8,170.72-.58,19.48-1.46,38.92-6.23,57.94-10.77,42.92-35.66,74.14-76.59,91.84-22.19,9.6-45.77,12.38-69.67,13.36-5.24.22-10.47.75-15.71,1.14h-166a32.1,32.1,0,0,0-4.72-.8c-19.47-.58-38.92-1.46-57.94-6.23C62.63,486.2,31.4,461.31,13.7,420.38,4.11,398.19,1.32,374.6.34,350.7.13,345.46,0,165.86,0,164.28ZM45,252c0,21-.41,42,.12,63,.5,19.79,1.23,39.63,3.25,59.3,1.94,19,8.65,36.47,21.56,51.19,17.75,20.24,41.07,28.77,66.86,30.34,29.72,1.82,59.55,2.26,89.35,2.62q44,.54,88-.35c19.79-.4,39.63-1.23,59.31-3.24,19-1.94,36.46-8.66,51.18-21.57,20.24-17.75,28.77-41.07,30.35-66.85,1.82-29.73,2.25-59.56,2.62-89.36q.54-44-.36-88c-.4-19.79-1.22-39.63-3.24-59.3-1.94-19-8.65-36.47-21.56-51.19-17.75-20.24-41.07-28.77-66.86-30.34C335.86,46.41,306,46,276.23,45.61c-29.32-.36-58.66-.37-88,.39-21.77.56-43.75,1-65.18,4.33-36.63,5.73-61.46,26.93-71.31,63.29a165.55,165.55,0,0,0-5.36,36.94C45.16,184.34,44.78,252,45,252Z"/><path class="cls-1" d="M251.43,122.49a129.42,129.42,0,0,1,129.28,130c-.14,71.35-58.19,129.09-129.73,129a129.43,129.43,0,0,1-129.28-130C121.85,180.16,179.91,122.41,251.43,122.49Zm-.09,45.68c-45.91,0-83.92,37.49-84,82.82-.05,46.75,37.15,84.8,82.95,84.84,46.9,0,84.71-37.25,84.72-83.57S297.54,168.17,251.34,168.17Z"/><path class="cls-1" d="M416,117.63a30.4,30.4,0,1,1-30.38-30.47A30.43,30.43,0,0,1,416,117.63Z"/></g></g></svg>