<svg width="603" height="266" viewBox="0 0 603 266" fill="none" xmlns="http://www.w3.org/2000/svg">
<path d="M309.25 30.43L426.56 147.73L602.31 59.86" stroke="#515151" stroke-miterlimit="10"/>
<path d="M309.25 38.81L426.56 156.11L602.31 68.23" stroke="#515151" stroke-miterlimit="10"/>
<path d="M309.25 47.19L426.56 164.49L602.31 76.61" stroke="#515151" stroke-miterlimit="10"/>
<path d="M309.25 55.56L426.56 172.87L602.31 84.99" stroke="#515151" stroke-miterlimit="10"/>
<path d="M309.25 63.94L426.56 181.25L602.31 93.37" stroke="#515151" stroke-miterlimit="10"/>
<path d="M309.25 72.32L426.56 189.63L602.31 101.75" stroke="#515151" stroke-miterlimit="10"/>
<path d="M309.25 80.7L426.56 198.01L602.31 110.13" stroke="#515151" stroke-miterlimit="10"/>
<path d="M1.28003 30.43L118.58 147.73L294.34 59.86" stroke="#515151" stroke-miterlimit="10"/>
<path d="M1.28003 38.81L118.58 156.11L294.34 68.23" stroke="#515151" stroke-miterlimit="10"/>
<path d="M1.28003 47.19L118.58 164.49L294.34 76.61" stroke="#515151" stroke-miterlimit="10"/>
<path d="M1.28003 55.56L118.58 172.87L294.34 84.99" stroke="#515151" stroke-miterlimit="10"/>
<path d="M1.28003 63.94L118.58 181.25L294.34 93.37" stroke="#515151" stroke-miterlimit="10"/>
<path d="M1.28003 72.32L118.58 189.63L294.34 101.75" stroke="#515151" stroke-miterlimit="10"/>
<path d="M1.28003 80.7L118.58 198.01L294.34 110.13" stroke="#515151" stroke-miterlimit="10"/>
<path d="M1.28003 89.08L118.58 206.39L294.34 118.51" stroke="#515151" stroke-miterlimit="10"/>
<path d="M309.25 114.22L426.56 231.52L602.31 143.64" stroke="#515151" stroke-miterlimit="10"/>
<path d="M309.25 122.6L426.56 239.9L602.31 152.02" stroke="#515151" stroke-miterlimit="10"/>
<path d="M309.25 130.98L426.56 248.28L602.31 160.4" stroke="#515151" stroke-miterlimit="10"/>
<path d="M309.25 139.35L426.56 256.66L602.31 168.78" stroke="#515151" stroke-miterlimit="10"/>
<path d="M309.25 147.73L426.56 265.04L602.31 177.16" stroke="#515151" stroke-miterlimit="10"/>
<path d="M1.28003 122.6L118.58 239.9L294.34 152.02" stroke="#515151" stroke-miterlimit="10"/>
<path d="M1.28003 130.98L118.58 248.28L294.34 160.4" stroke="#515151" stroke-miterlimit="10"/>
<path d="M1.28003 139.35L118.58 256.66L294.34 168.78" stroke="#515151" stroke-miterlimit="10"/>
<path d="M1.28003 147.73L118.58 265.04L294.34 177.16" stroke="#515151" stroke-miterlimit="10"/>
<path d="M309.25 89.08L426.56 206.39L602.31 118.51" stroke="#515151" stroke-miterlimit="10"/>
<path d="M309.25 97.46L426.56 214.76L602.31 126.89" stroke="#515151" stroke-miterlimit="10"/>
<path d="M309.25 105.84L426.56 223.14L602.31 135.27" stroke="#515151" stroke-miterlimit="10"/>
<path d="M1.28003 97.46L118.58 214.76L294.34 126.89" stroke="#515151" stroke-miterlimit="10"/>
<path d="M1.28003 105.84L118.58 223.14L294.34 135.27" stroke="#515151" stroke-miterlimit="10"/>
<path d="M1.28003 114.22L118.58 231.52L294.34 143.64" stroke="#515151" stroke-miterlimit="10"/>
<path d="M509.28 62.69L455.98 9.02002L402.5 35.76" stroke="#515151" stroke-miterlimit="10"/>
<path d="M503.96 65.35L455.98 17.05L407.84 41.12" stroke="#515151" stroke-miterlimit="10"/>
<path d="M498.63 68.02L455.98 25.07L413.22 46.45" stroke="#515151" stroke-miterlimit="10"/>
<path d="M493.31 70.68L455.98 33.09L418.58 51.8" stroke="#515151" stroke-miterlimit="10"/>
<path d="M487.98 73.34L455.98 41.12L423.96 57.16" stroke="#515151" stroke-miterlimit="10"/>
<path d="M482.66 76L455.98 49.14L429.3 62.48" stroke="#515151" stroke-miterlimit="10"/>
<path d="M477.34 78.66L455.98 57.16L434.66 67.83" stroke="#515151" stroke-miterlimit="10"/>
<path d="M472.01 81.33L455.98 65.19L439.94 73.21" stroke="#515151" stroke-miterlimit="10"/>
<path d="M466.69 83.99L455.98 73.21L445.37 78.51" stroke="#515151" stroke-miterlimit="10"/>
<path d="M461.36 86.65L455.98 81.23L450.73 83.86" stroke="#515151" stroke-miterlimit="10"/>
<path d="M206.46 59.86L191.95 45.34V67.11L206.46 59.86Z" stroke="#515151" stroke-miterlimit="10"/>
<path d="M201.31 62.43L191.95 53.06" stroke="#515151" stroke-miterlimit="10"/>
<path d="M397.14 30.42L455.98 1L514.6 60.03L456.15 89.26L397.14 30.42Z" stroke="#515151" stroke-miterlimit="10"/>
</svg>
