<svg width="603" height="267" viewBox="0 0 603 267" fill="none" xmlns="http://www.w3.org/2000/svg">
<path d="M601.84 60.68L543.39 90.1L499.45 46.17L440.27 75.35" stroke="white" stroke-miterlimit="10"/>
<path d="M444.58 79.56L498.45 53L543.39 97.92L601.84 68.5" stroke="white" stroke-miterlimit="10"/>
<path d="M448.85 83.79L497.46 59.83L543.39 105.74L601.84 76.32" stroke="white" stroke-miterlimit="10"/>
<path d="M453.12 88.02L496.47 66.66L543.39 113.57L601.84 84.14" stroke="white" stroke-miterlimit="10"/>
<path d="M457.39 92.25L495.47 73.49L543.39 121.38L601.84 91.96" stroke="white" stroke-miterlimit="10"/>
<path d="M461.65 96.48L494.48 80.32L543.39 129.21L601.84 99.78" stroke="white" stroke-miterlimit="10"/>
<path d="M465.92 100.71L493.48 87.15L543.39 137.03L601.84 107.6" stroke="white" stroke-miterlimit="10"/>
<path d="M470.2 104.94L492.49 93.98L543.39 144.85L601.84 115.42" stroke="white" stroke-miterlimit="10"/>
<path d="M474.47 109.18L491.49 100.81L543.39 152.67L601.84 123.24" stroke="white" stroke-miterlimit="10"/>
<path d="M0.800049 31.25L117.89 148.56L176.23 119.29L124.87 67.93H176.56V31.25L235.41 90.1L293.87 60.68" stroke="white" stroke-miterlimit="10"/>
<path d="M133.25 76.31H176.56V39.63L235.41 98.48L293.87 69.06" stroke="white" stroke-miterlimit="10"/>
<path d="M0.800049 39.63L117.89 156.93L176.23 127.67" stroke="white" stroke-miterlimit="10"/>
<path d="M141.63 84.69H176.56V48.01L235.41 106.86L293.87 77.44" stroke="white" stroke-miterlimit="10"/>
<path d="M0.800049 48.01L117.89 165.31L176.23 136.05" stroke="white" stroke-miterlimit="10"/>
<path d="M150.01 93.07H176.56V56.39L235.41 115.24L293.87 85.82" stroke="white" stroke-miterlimit="10"/>
<path d="M0.800049 56.39L117.89 173.69L176.23 144.43" stroke="white" stroke-miterlimit="10"/>
<path d="M158.39 101.45H176.56V64.77L235.41 123.62L293.87 94.19" stroke="white" stroke-miterlimit="10"/>
<path d="M0.800049 64.77L117.89 182.07L176.23 152.81" stroke="white" stroke-miterlimit="10"/>
<path d="M166.28 109.83H176.56V73.14L235.41 132L293.87 102.57" stroke="white" stroke-miterlimit="10"/>
<path d="M0.800049 73.14L117.89 190.45L176.23 161.19" stroke="white" stroke-miterlimit="10"/>
<path d="M176.56 148.76V81.52L235.41 140.38L293.87 110.95" stroke="white" stroke-miterlimit="10"/>
<path d="M0.800049 81.52L117.89 198.83L176.23 169.57" stroke="white" stroke-miterlimit="10"/>
<path d="M0.800049 89.9L117.89 207.21L176.23 177.95" stroke="white" stroke-miterlimit="10"/>
<path d="M484.53 129.59L487.52 128.14L543.39 183.95L601.84 154.52" stroke="white" stroke-miterlimit="10"/>
<path d="M484.53 135.94L486.52 134.97L543.39 191.77L601.84 162.34" stroke="white" stroke-miterlimit="10"/>
<path d="M484.53 142.28L485.53 141.8L543.39 199.59L601.84 170.16" stroke="white" stroke-miterlimit="10"/>
<path d="M484.53 148.63L543.39 207.41L601.84 177.98" stroke="white" stroke-miterlimit="10"/>
<path d="M176.56 123.42L235.41 182.27L293.87 152.85" stroke="white" stroke-miterlimit="10"/>
<path d="M176.56 131.8L235.41 190.65L293.87 161.23" stroke="white" stroke-miterlimit="10"/>
<path d="M0.800049 131.8L117.89 249.1L176.23 219.84" stroke="white" stroke-miterlimit="10"/>
<path d="M176.56 140.18L235.41 199.03L293.87 169.61" stroke="white" stroke-miterlimit="10"/>
<path d="M0.800049 140.18L117.89 257.48L176.23 228.22" stroke="white" stroke-miterlimit="10"/>
<path d="M176.56 148.56L235.41 207.41L293.87 177.98" stroke="white" stroke-miterlimit="10"/>
<path d="M0.800049 148.56L117.89 265.86L176.23 236.6V119.29" stroke="white" stroke-miterlimit="10"/>
<path d="M484.53 236.44L426.08 265.86L308.78 148.56" stroke="white" stroke-miterlimit="10"/>
<path d="M308.78 140.18L426.08 257.48L484.53 228.06" stroke="white" stroke-miterlimit="10"/>
<path d="M308.78 131.8L426.07 249.09L484.53 219.68" stroke="white" stroke-miterlimit="10"/>
<path d="M308.78 123.42L426.06 240.71L484.53 211.31" stroke="white" stroke-miterlimit="10"/>
<path d="M478.74 113.42L490.5 107.64L543.39 160.49L601.84 131.06" stroke="white" stroke-miterlimit="10"/>
<path d="M483.02 117.66L489.5 114.48L543.39 168.31L601.84 138.88" stroke="white" stroke-miterlimit="10"/>
<path d="M484.53 123.25L488.51 121.31L543.39 176.13L601.84 146.7" stroke="white" stroke-miterlimit="10"/>
<path d="M176.56 89.9L235.41 148.76L293.87 119.33" stroke="white" stroke-miterlimit="10"/>
<path d="M176.56 98.28L235.41 157.14L293.87 127.71" stroke="white" stroke-miterlimit="10"/>
<path d="M0.800049 98.28L117.89 215.59L176.23 186.32" stroke="white" stroke-miterlimit="10"/>
<path d="M176.56 106.66L235.41 165.51L293.87 136.09" stroke="white" stroke-miterlimit="10"/>
<path d="M0.800049 106.66L117.89 223.97L176.23 194.7" stroke="white" stroke-miterlimit="10"/>
<path d="M176.56 115.04L235.41 173.89L293.87 144.47" stroke="white" stroke-miterlimit="10"/>
<path d="M0.800049 115.04L117.89 232.35L176.23 203.08" stroke="white" stroke-miterlimit="10"/>
<path d="M0.800049 123.42L117.89 240.72L176.23 211.46" stroke="white" stroke-miterlimit="10"/>
<path d="M308.78 115.04L426.06 232.32L484.53 202.93" stroke="white" stroke-miterlimit="10"/>
<path d="M308.78 106.66L426.05 223.93L484.53 194.55" stroke="white" stroke-miterlimit="10"/>
<path d="M308.78 98.28L426.04 215.55L484.53 186.17" stroke="white" stroke-miterlimit="10"/>
<path d="M308.78 89.9L426.04 207.16L484.53 177.79" stroke="white" stroke-miterlimit="10"/>
<path d="M308.78 81.52L426.03 198.78L484.53 169.42" stroke="white" stroke-miterlimit="10"/>
<path d="M308.78 73.14L426.03 190.39L484.53 161.04" stroke="white" stroke-miterlimit="10"/>
<path d="M308.78 64.77L426.02 182.01L484.53 152.66" stroke="white" stroke-miterlimit="10"/>
<path d="M308.78 56.39L426.01 173.62L484.53 144.28" stroke="white" stroke-miterlimit="10"/>
<path d="M308.78 48.01L426.01 165.24L484.53 135.9" stroke="white" stroke-miterlimit="10"/>
<path d="M308.78 39.63L426 156.85L484.53 127.53" stroke="white" stroke-miterlimit="10"/>
<path d="M308.78 31.25L426 148.47L484.53 119.15" stroke="white" stroke-miterlimit="10"/>
<path d="M396.79 30.96L455.52 1.59998L477.47 23.97L418.75 53.33L396.79 30.96Z" stroke="white" stroke-miterlimit="10"/>
<path d="M402.28 36.55L455.56 9.90997L472.02 26.69" stroke="white" stroke-miterlimit="10"/>
<path d="M407.77 42.15L455.6 18.23L466.57 29.41" stroke="white" stroke-miterlimit="10"/>
<path d="M413.13 47.6L455.63 26.55L461.12 32.14" stroke="white" stroke-miterlimit="10"/>
</svg>
