<svg width="399" height="177" viewBox="0 0 399 177" fill="none" xmlns="http://www.w3.org/2000/svg">
<path d="M398 40.0236L359.392 59.4562L330.369 30.4395L291.279 49.7135" stroke="#C67513" stroke-miterlimit="10"/>
<path d="M294.126 52.4944L329.709 34.9509L359.392 64.6216L398 45.189" stroke="#C67513" stroke-miterlimit="10"/>
<path d="M296.947 55.2884L329.055 39.4623L359.392 69.7868L398 50.3543" stroke="#C67513" stroke-miterlimit="10"/>
<path d="M299.767 58.0823L328.401 43.9735L359.392 74.9586L398 55.5195" stroke="#C67513" stroke-miterlimit="10"/>
<path d="M302.588 60.8763L327.74 48.4849L359.393 80.1173L398 60.6847" stroke="#C67513" stroke-miterlimit="10"/>
<path d="M305.401 63.6703L327.086 52.9963L359.392 85.2892L398 65.8501" stroke="#C67513" stroke-miterlimit="10"/>
<path d="M308.222 66.4644L326.426 57.5077L359.392 90.4545L398 71.0153" stroke="#C67513" stroke-miterlimit="10"/>
<path d="M311.049 69.2584L325.772 62.019L359.392 95.6198L398 76.1806" stroke="#C67513" stroke-miterlimit="10"/>
<path d="M313.869 72.059L325.111 66.5304L359.392 100.785L398 81.3459" stroke="#C67513" stroke-miterlimit="10"/>
<path d="M1 20.5845L78.3405 98.0703L116.875 78.7368L82.9509 44.8124H117.093V20.5845L155.965 59.4562L194.579 40.0236" stroke="#C67513" stroke-miterlimit="10"/>
<path d="M88.486 50.3476H117.093V26.1196L155.965 64.9913L194.579 45.5588" stroke="#C67513" stroke-miterlimit="10"/>
<path d="M1 26.1196L78.3405 103.599L116.875 84.2719" stroke="#C67513" stroke-miterlimit="10"/>
<path d="M94.0212 55.8827H117.093V31.6548L155.965 70.5265L194.579 51.0939" stroke="#C67513" stroke-miterlimit="10"/>
<path d="M1 31.6548L78.3405 109.134L116.875 89.8071" stroke="#C67513" stroke-miterlimit="10"/>
<path d="M99.5563 61.4179H117.093V37.1899L155.965 76.0616L194.579 56.6291" stroke="#C67513" stroke-miterlimit="10"/>
<path d="M1 37.1899L78.3405 114.669L116.875 95.3423" stroke="#C67513" stroke-miterlimit="10"/>
<path d="M105.092 66.953H117.093V42.7251L155.965 81.5968L194.579 62.1576" stroke="#C67513" stroke-miterlimit="10"/>
<path d="M1 42.7251L78.3405 120.204L116.875 100.877" stroke="#C67513" stroke-miterlimit="10"/>
<path d="M110.303 72.4883H117.093V48.2538L155.965 87.1321L194.579 67.6929" stroke="#C67513" stroke-miterlimit="10"/>
<path d="M1 48.2538L78.3405 125.74L116.875 106.413" stroke="#C67513" stroke-miterlimit="10"/>
<path d="M117.093 98.2024V53.7889L155.965 92.6672L194.579 73.2281" stroke="#C67513" stroke-miterlimit="10"/>
<path d="M1 53.7889L78.3405 131.275L116.875 111.948" stroke="#C67513" stroke-miterlimit="10"/>
<path d="M1 59.3241L78.3405 136.81L116.875 117.483" stroke="#C67513" stroke-miterlimit="10"/>
<path d="M320.514 85.5403L322.489 84.5825L359.392 121.446L398 102.007" stroke="#C67513" stroke-miterlimit="10"/>
<path d="M320.514 89.7345L321.829 89.0938L359.392 126.611L398 107.172" stroke="#C67513" stroke-miterlimit="10"/>
<path d="M320.514 93.9222L321.175 93.6051L359.392 131.777L398 112.337" stroke="#C67513" stroke-miterlimit="10"/>
<path d="M320.514 98.1166L359.392 136.942L398 117.503" stroke="#C67513" stroke-miterlimit="10"/>
<path d="M117.093 81.4647L155.965 120.336L194.579 100.904" stroke="#C67513" stroke-miterlimit="10"/>
<path d="M117.093 86.9999L155.965 125.872L194.579 106.439" stroke="#C67513" stroke-miterlimit="10"/>
<path d="M1 86.9999L78.3405 164.479L116.875 145.152" stroke="#C67513" stroke-miterlimit="10"/>
<path d="M117.093 92.5352L155.965 131.407L194.579 111.974" stroke="#C67513" stroke-miterlimit="10"/>
<path d="M1 92.5352L78.3405 170.014L116.875 150.687" stroke="#C67513" stroke-miterlimit="10"/>
<path d="M117.093 98.0703L155.965 136.942L194.579 117.503" stroke="#C67513" stroke-miterlimit="10"/>
<path d="M1 98.0703L78.3405 175.549L116.875 156.223V78.7368" stroke="#C67513" stroke-miterlimit="10"/>
<path d="M320.514 156.117L281.907 175.549L204.427 98.0703" stroke="#C67513" stroke-miterlimit="10"/>
<path d="M204.427 92.5352L281.907 170.014L320.514 150.582" stroke="#C67513" stroke-miterlimit="10"/>
<path d="M204.427 86.9999L281.9 164.472L320.514 145.047" stroke="#C67513" stroke-miterlimit="10"/>
<path d="M204.427 81.4647L281.893 158.937L320.514 139.518" stroke="#C67513" stroke-miterlimit="10"/>
<path d="M316.69 74.8595L324.457 71.0417L359.392 105.95L398 86.5112" stroke="#C67513" stroke-miterlimit="10"/>
<path d="M319.517 77.6601L323.797 75.5597L359.392 111.116L398 91.6764" stroke="#C67513" stroke-miterlimit="10"/>
<path d="M320.514 81.3525L323.143 80.071L359.392 116.281L398 96.8417" stroke="#C67513" stroke-miterlimit="10"/>
<path d="M117.093 59.3241L155.965 98.2024L194.579 78.7632" stroke="#C67513" stroke-miterlimit="10"/>
<path d="M117.093 64.8593L155.965 103.738L194.579 84.2984" stroke="#C67513" stroke-miterlimit="10"/>
<path d="M1 64.8593L78.3405 142.345L116.875 123.012" stroke="#C67513" stroke-miterlimit="10"/>
<path d="M117.093 70.3944L155.965 109.266L194.579 89.8336" stroke="#C67513" stroke-miterlimit="10"/>
<path d="M1 70.3944L78.3405 147.88L116.875 128.547" stroke="#C67513" stroke-miterlimit="10"/>
<path d="M117.093 75.9296L155.965 114.801L194.579 95.3687" stroke="#C67513" stroke-miterlimit="10"/>
<path d="M1 75.9296L78.3405 153.415L116.875 134.082" stroke="#C67513" stroke-miterlimit="10"/>
<path d="M1 81.4647L78.3405 158.944L116.875 139.617" stroke="#C67513" stroke-miterlimit="10"/>
<path d="M204.427 75.9296L281.893 153.396L320.514 133.983" stroke="#C67513" stroke-miterlimit="10"/>
<path d="M204.427 70.3944L281.887 147.854L320.514 128.448" stroke="#C67513" stroke-miterlimit="10"/>
<path d="M204.427 64.8593L281.88 142.319L320.514 122.912" stroke="#C67513" stroke-miterlimit="10"/>
<path d="M204.427 59.3241L281.88 136.777L320.514 117.377" stroke="#C67513" stroke-miterlimit="10"/>
<path d="M204.427 53.7889L281.874 131.242L320.514 111.849" stroke="#C67513" stroke-miterlimit="10"/>
<path d="M204.427 48.2538L281.874 125.7L320.514 106.314" stroke="#C67513" stroke-miterlimit="10"/>
<path d="M204.427 42.7251L281.867 120.165L320.514 100.778" stroke="#C67513" stroke-miterlimit="10"/>
<path d="M204.427 37.1899L281.86 114.623L320.514 95.2432" stroke="#C67513" stroke-miterlimit="10"/>
<path d="M204.427 31.6548L281.86 109.088L320.514 89.708" stroke="#C67513" stroke-miterlimit="10"/>
<path d="M204.427 26.1196L281.854 103.546L320.514 84.1795" stroke="#C67513" stroke-miterlimit="10"/>
<path d="M204.427 20.5845L281.854 98.0108L320.514 78.6443" stroke="#C67513" stroke-miterlimit="10"/>
<path d="M262.56 20.3929L301.352 1L315.851 15.7759L277.065 35.1688L262.56 20.3929Z" stroke="#C67513" stroke-miterlimit="10"/>
<path d="M266.186 24.0852L301.379 6.48889L312.251 17.5725" stroke="#C67513" stroke-miterlimit="10"/>
<path d="M269.812 27.7842L301.405 11.9845L308.651 19.3691" stroke="#C67513" stroke-miterlimit="10"/>
<path d="M273.353 31.384L301.425 17.48L305.051 21.1723" stroke="#C67513" stroke-miterlimit="10"/>
</svg>
