<svg width="427" height="177" viewBox="0 0 427 177" fill="none" xmlns="http://www.w3.org/2000/svg">
<path d="M426.44 39.94L387.75 59.42L358.67 30.34L319.49 49.66" stroke="#C67513" stroke-miterlimit="10"/>
<path d="M322.35 52.44L358.01 34.86L387.75 64.6L426.44 45.12" stroke="#C67513" stroke-miterlimit="10"/>
<path d="M325.18 55.24L357.35 39.38L387.75 69.77L426.44 50.3" stroke="#C67513" stroke-miterlimit="10"/>
<path d="M328 58.04L356.69 43.9L387.75 74.95L426.44 55.47" stroke="#C67513" stroke-miterlimit="10"/>
<path d="M330.82 60.84L356.03 48.42L387.75 80.13L426.44 60.65" stroke="#C67513" stroke-miterlimit="10"/>
<path d="M333.65 63.64L355.37 52.94L387.75 85.3L426.44 65.83" stroke="#C67513" stroke-miterlimit="10"/>
<path d="M336.48 66.44L354.72 57.47L387.75 90.48L426.44 71" stroke="#C67513" stroke-miterlimit="10"/>
<path d="M339.3 69.24L354.06 61.99L387.75 95.65L426.44 76.18" stroke="#C67513" stroke-miterlimit="10"/>
<path d="M342.13 72.05L353.4 66.51L387.75 100.83L426.44 81.35" stroke="#C67513" stroke-miterlimit="10"/>
<path d="M116.29 50.29H144.95V26.01L183.9 64.97L222.59 45.49" stroke="#C67513" stroke-miterlimit="10"/>
<path d="M121.83 55.84H144.95V31.56L183.9 70.51L222.59 51.04" stroke="#C67513" stroke-miterlimit="10"/>
<path d="M127.38 61.38H144.95V37.1L183.9 76.06L222.59 56.58" stroke="#C67513" stroke-miterlimit="10"/>
<path d="M132.92 66.93H144.95V42.65L183.9 81.6L222.59 62.13" stroke="#C67513" stroke-miterlimit="10"/>
<path d="M138.15 72.47H144.95V48.19L183.9 87.15L222.59 67.67" stroke="#C67513" stroke-miterlimit="10"/>
<path d="M144.95 98.24V53.74L183.9 92.7L222.59 73.22" stroke="#C67513" stroke-miterlimit="10"/>
<path d="M348.79 85.56L350.77 84.59L387.75 121.53L426.44 102.06" stroke="#C67513" stroke-miterlimit="10"/>
<path d="M348.79 89.76L350.11 89.12L387.75 126.71L426.44 107.23" stroke="#C67513" stroke-miterlimit="10"/>
<path d="M348.79 93.96L349.45 93.64L387.75 131.89L426.44 112.41" stroke="#C67513" stroke-miterlimit="10"/>
<path d="M348.79 98.16L387.75 137.06L426.44 117.59" stroke="#C67513" stroke-miterlimit="10"/>
<path d="M144.95 81.47L183.9 120.43L222.59 100.95" stroke="#C67513" stroke-miterlimit="10"/>
<path d="M144.95 87.02L183.9 125.97L222.59 106.5" stroke="#C67513" stroke-miterlimit="10"/>
<path d="M144.95 92.56L183.9 131.52L222.59 112.04" stroke="#C67513" stroke-miterlimit="10"/>
<path d="M144.95 98.11L183.9 137.06L222.59 117.59" stroke="#C67513" stroke-miterlimit="10"/>
<path d="M348.79 156.28L310.11 175.75L232.46 98.11" stroke="#C67513" stroke-miterlimit="10"/>
<path d="M232.46 92.56L310.1 170.2L348.79 150.73" stroke="#C67513" stroke-miterlimit="10"/>
<path d="M232.46 87.02L310.1 164.65L348.79 145.19" stroke="#C67513" stroke-miterlimit="10"/>
<path d="M232.46 81.47L310.09 159.1L348.79 139.64" stroke="#C67513" stroke-miterlimit="10"/>
<path d="M344.96 74.85L352.74 71.03L387.75 106.01L426.44 86.53" stroke="#C67513" stroke-miterlimit="10"/>
<path d="M347.79 77.66L352.08 75.55L387.75 111.18L426.44 91.71" stroke="#C67513" stroke-miterlimit="10"/>
<path d="M348.79 81.36L351.43 80.07L387.75 116.36L426.44 96.88" stroke="#C67513" stroke-miterlimit="10"/>
<path d="M144.95 59.29L183.9 98.24L222.59 78.77" stroke="#C67513" stroke-miterlimit="10"/>
<path d="M144.95 64.83L183.9 103.79L222.59 84.31" stroke="#C67513" stroke-miterlimit="10"/>
<path d="M144.95 70.38L183.9 109.33L222.59 89.86" stroke="#C67513" stroke-miterlimit="10"/>
<path d="M144.95 75.92L183.9 114.88L222.59 95.4" stroke="#C67513" stroke-miterlimit="10"/>
<path d="M232.46 75.92L310.09 153.55L348.79 134.1" stroke="#C67513" stroke-miterlimit="10"/>
<path d="M232.46 70.38L310.08 148L348.79 128.55" stroke="#C67513" stroke-miterlimit="10"/>
<path d="M232.46 64.83L310.08 142.45L348.79 123.01" stroke="#C67513" stroke-miterlimit="10"/>
<path d="M232.46 59.29L310.08 136.9L348.79 117.46" stroke="#C67513" stroke-miterlimit="10"/>
<path d="M232.46 53.74L310.07 131.35L348.79 111.92" stroke="#C67513" stroke-miterlimit="10"/>
<path d="M232.46 48.19L310.07 125.8L348.79 106.37" stroke="#C67513" stroke-miterlimit="10"/>
<path d="M232.46 42.65L310.06 120.25L348.79 100.82" stroke="#C67513" stroke-miterlimit="10"/>
<path d="M232.46 37.1L310.06 114.7L348.79 95.28" stroke="#C67513" stroke-miterlimit="10"/>
<path d="M232.46 31.56L310.06 109.15L348.79 89.74" stroke="#C67513" stroke-miterlimit="10"/>
<path d="M232.46 26.01L310.05 103.6L348.79 84.19" stroke="#C67513" stroke-miterlimit="10"/>
<path d="M232.46 20.47L310.05 98.05L348.79 78.64" stroke="#C67513" stroke-miterlimit="10"/>
<path d="M144.73 112.02V106.47" stroke="#C67513" stroke-miterlimit="10"/>
<path d="M144.73 84.29V78.74" stroke="#C67513" stroke-miterlimit="10"/>
<path d="M144.73 106.47V100.92" stroke="#C67513" stroke-miterlimit="10"/>
<path d="M144.73 95.38V89.83" stroke="#C67513" stroke-miterlimit="10"/>
<path d="M144.73 89.83V84.29" stroke="#C67513" stroke-miterlimit="10"/>
<path d="M144.73 117.56V112.02" stroke="#C67513" stroke-miterlimit="10"/>
<path d="M144.73 145.29V139.74" stroke="#C67513" stroke-miterlimit="10"/>
<path d="M144.73 150.84V145.29" stroke="#C67513" stroke-miterlimit="10"/>
<path d="M144.73 139.74V134.2" stroke="#C67513" stroke-miterlimit="10"/>
<path d="M144.73 123.11V117.56" stroke="#C67513" stroke-miterlimit="10"/>
<path d="M144.73 128.65V123.11" stroke="#C67513" stroke-miterlimit="10"/>
<path d="M144.73 134.2V128.65" stroke="#C67513" stroke-miterlimit="10"/>
<path d="M144.73 100.92V95.38" stroke="#C67513" stroke-miterlimit="10"/>
<path d="M222.59 39.94L183.9 59.42L144.95 20.47V44.75H110.74L144.73 78.74" stroke="#C67513" stroke-miterlimit="10"/>
<path d="M144.73 78.74L106.12 98.11L28.62 20.47H0.709961" stroke="#C67513" stroke-miterlimit="10"/>
<path d="M290.72 20.28L329.59 0.840027L344.12 15.64L305.25 35.08L290.72 20.28Z" stroke="#C67513" stroke-miterlimit="10"/>
<path d="M294.35 23.98L329.61 6.34003L340.51 17.45" stroke="#C67513" stroke-miterlimit="10"/>
<path d="M297.99 27.68L329.64 11.85L336.91 19.25" stroke="#C67513" stroke-miterlimit="10"/>
<path d="M301.53 31.29L329.67 17.35L333.3 21.06" stroke="#C67513" stroke-miterlimit="10"/>
<path d="M28.6201 26.01L106.12 103.65L144.73 84.29" stroke="#C67513" stroke-miterlimit="10"/>
<path d="M144.73 95.38L106.12 114.75L28.6201 37.1" stroke="#C67513" stroke-miterlimit="10"/>
<path d="M144.73 150.84V156.38L106.12 175.75L28.6201 98.11" stroke="#C67513" stroke-miterlimit="10"/>
<path d="M144.73 150.84L106.12 170.21L28.6201 92.56" stroke="#C67513" stroke-miterlimit="10"/>
<path d="M144.73 145.29L106.12 164.66L28.6201 87.02" stroke="#C67513" stroke-miterlimit="10"/>
<path d="M144.73 139.75L106.12 159.11L28.6201 81.47" stroke="#C67513" stroke-miterlimit="10"/>
<path d="M144.73 134.2L106.12 153.57L28.6201 75.92" stroke="#C67513" stroke-miterlimit="10"/>
<path d="M144.73 128.65L106.12 148.02L28.6201 70.38" stroke="#C67513" stroke-miterlimit="10"/>
<path d="M144.73 123.11L106.12 142.48L28.6201 64.83" stroke="#C67513" stroke-miterlimit="10"/>
<path d="M144.73 117.56L106.12 136.93L28.6201 59.29" stroke="#C67513" stroke-miterlimit="10"/>
<path d="M144.73 89.83L106.12 109.2L28.6201 31.56" stroke="#C67513" stroke-miterlimit="10"/>
<path d="M144.73 112.01L106.12 131.38L28.6201 53.74" stroke="#C67513" stroke-miterlimit="10"/>
<path d="M144.73 106.47L106.12 125.84L28.6201 48.19" stroke="#C67513" stroke-miterlimit="10"/>
<path d="M144.73 100.92L106.12 120.29L28.6201 42.65" stroke="#C67513" stroke-miterlimit="10"/>
<path d="M13.13 8.03998L0.709961 20.47L13.13 32.89" stroke="#C67513" stroke-miterlimit="10"/>
</svg>
